<svg width="114" height="25" viewBox="0 0 114 25" fill="none" xmlns="http://www.w3.org/2000/svg">
<g clip-path="url(#clip0_1_71)">
<path d="M28.608 0.344V0.983999C27.9253 1.00533 27.4133 1.09067 27.072 1.24C26.7307 1.368 26.496 1.624 26.368 2.008C26.2613 2.37067 26.208 2.94666 26.208 3.736V19.608C26.208 20.376 26.2613 20.952 26.368 21.336C26.496 21.72 26.7307 21.976 27.072 22.104C27.4133 22.232 27.9253 22.3173 28.608 22.36V23C28.0107 22.9573 27.2533 22.936 26.336 22.936C25.44 22.9147 24.5227 22.904 23.584 22.904C22.56 22.904 21.6 22.9147 20.704 22.936C19.808 22.936 19.0827 22.9573 18.528 23V22.36C19.2533 22.3173 19.7973 22.232 20.16 22.104C20.544 21.976 20.8 21.72 20.928 21.336C21.056 20.952 21.12 20.376 21.12 19.608V2.296H21.344L13.408 23.032H12.896L4.256 2.424V17.752C4.256 18.9253 4.32 19.832 4.448 20.472C4.576 21.0907 4.85333 21.5387 5.28 21.816C5.728 22.072 6.42133 22.2533 7.36 22.36V23C6.95467 22.9573 6.42133 22.936 5.76 22.936C5.09867 22.9147 4.48 22.904 3.904 22.904C3.41333 22.904 2.912 22.9147 2.4 22.936C1.888 22.936 1.46133 22.9573 1.12 23V22.36C1.80267 22.2533 2.31467 22.072 2.656 21.816C2.99733 21.56 3.22133 21.144 3.328 20.568C3.456 19.9707 3.52 19.16 3.52 18.136V3.736C3.52 2.94666 3.456 2.37067 3.328 2.008C3.22133 1.624 2.98667 1.368 2.624 1.24C2.28267 1.09067 1.78133 1.00533 1.12 0.983999V0.344C1.46133 0.365333 1.888 0.386666 2.4 0.407999C2.912 0.429332 3.41333 0.439999 3.904 0.439999C4.82133 0.439999 5.71733 0.429332 6.592 0.407999C7.488 0.386666 8.27733 0.365333 8.96 0.344L15.68 16.568L14.88 17.304L21.312 0.439999C21.6747 0.439999 22.048 0.439999 22.432 0.439999C22.816 0.439999 23.2 0.439999 23.584 0.439999C24.5227 0.439999 25.44 0.429332 26.336 0.407999C27.2533 0.386666 28.0107 0.365333 28.608 0.344Z" fill="white"/>
<path d="M54.176 0.344V0.983999C53.4933 1.06933 52.9813 1.25067 52.64 1.528C52.2987 1.784 52.064 2.2 51.936 2.776C51.8293 3.352 51.776 4.16267 51.776 5.208V23.064C51.52 23.0427 51.2533 23.032 50.976 23.032C50.72 23.032 50.4427 23.0427 50.144 23.064L36.256 5.464V17.752C36.256 18.9253 36.32 19.832 36.448 20.472C36.576 21.0907 36.8533 21.5387 37.28 21.816C37.728 22.072 38.4213 22.2533 39.36 22.36V23C38.9547 22.9573 38.4213 22.936 37.76 22.936C37.0987 22.9147 36.48 22.904 35.904 22.904C35.4133 22.904 34.912 22.9147 34.4 22.936C33.888 22.936 33.4613 22.9573 33.12 23V22.36C33.8027 22.2533 34.3147 22.072 34.656 21.816C34.9973 21.56 35.2213 21.144 35.328 20.568C35.456 19.9707 35.52 19.16 35.52 18.136V3.736C35.52 2.94666 35.456 2.37067 35.328 2.008C35.2213 1.624 34.9867 1.368 34.624 1.24C34.2827 1.09067 33.7813 1.00533 33.12 0.983999V0.344C33.4613 0.365333 33.888 0.386666 34.4 0.407999C34.912 0.429332 35.4133 0.439999 35.904 0.439999C36.416 0.439999 36.9067 0.429332 37.376 0.407999C37.8453 0.386666 38.272 0.365333 38.656 0.344L51.04 15.608V5.592C51.04 4.41867 50.976 3.52267 50.848 2.904C50.72 2.264 50.432 1.80533 49.984 1.528C49.5573 1.25067 48.8747 1.06933 47.936 0.983999V0.344C48.3413 0.365333 48.8747 0.386666 49.536 0.407999C50.1973 0.429332 50.816 0.439999 51.392 0.439999C51.904 0.439999 52.4053 0.429332 52.896 0.407999C53.408 0.386666 53.8347 0.365333 54.176 0.344Z" fill="white"/>
<path d="M78.544 0.344C78.4587 1.432 78.3947 2.47733 78.352 3.48C78.3307 4.48267 78.32 5.25067 78.32 5.784C78.32 6.25333 78.3307 6.70133 78.352 7.128C78.3733 7.55467 78.3947 7.91733 78.416 8.216H77.68C77.3387 6.424 76.9013 5.00533 76.368 3.96C75.856 2.91467 75.2373 2.17867 74.512 1.752C73.7867 1.304 72.9333 1.08 71.952 1.08H71.216V19.352C71.216 20.2053 71.3013 20.8453 71.472 21.272C71.664 21.6987 72.0053 21.9867 72.496 22.136C72.9867 22.264 73.7013 22.3387 74.64 22.36V23C73.9787 22.9787 73.0933 22.9573 71.984 22.936C70.896 22.9147 69.7547 22.904 68.56 22.904C67.3867 22.904 66.2773 22.9147 65.232 22.936C64.1867 22.9573 63.344 22.9787 62.704 23V22.36C63.664 22.3387 64.3893 22.264 64.88 22.136C65.3707 21.9867 65.7013 21.6987 65.872 21.272C66.0427 20.8453 66.128 20.2053 66.128 19.352V1.08H65.424C64.4427 1.08 63.5893 1.304 62.864 1.752C62.1387 2.17867 61.52 2.91467 61.008 3.96C60.496 4.984 60.048 6.40267 59.664 8.216H58.928C58.9707 7.91733 58.992 7.55467 58.992 7.128C59.0133 6.70133 59.024 6.25333 59.024 5.784C59.024 5.25067 59.0027 4.48267 58.96 3.48C58.9387 2.47733 58.8853 1.432 58.8 0.344C59.7813 0.365333 60.848 0.386666 62 0.407999C63.1733 0.429332 64.3467 0.439999 65.52 0.439999C66.6933 0.439999 67.7493 0.439999 68.688 0.439999C69.648 0.439999 70.704 0.439999 71.856 0.439999C73.0293 0.439999 74.2027 0.429332 75.376 0.407999C76.5493 0.386666 77.6053 0.365333 78.544 0.344Z" fill="white"/>
<path d="M104.176 0.344V0.983999C103.493 1.06933 102.981 1.25067 102.64 1.528C102.299 1.784 102.064 2.2 101.936 2.776C101.829 3.352 101.776 4.16267 101.776 5.208V23.064C101.52 23.0427 101.253 23.032 100.976 23.032C100.72 23.032 100.443 23.0427 100.144 23.064L86.256 5.464V17.752C86.256 18.9253 86.32 19.832 86.448 20.472C86.576 21.0907 86.8533 21.5387 87.28 21.816C87.728 22.072 88.4213 22.2533 89.36 22.36V23C88.9547 22.9573 88.4213 22.936 87.76 22.936C87.0987 22.9147 86.48 22.904 85.904 22.904C85.4133 22.904 84.912 22.9147 84.4 22.936C83.888 22.936 83.4613 22.9573 83.12 23V22.36C83.8027 22.2533 84.3147 22.072 84.656 21.816C84.9973 21.56 85.2213 21.144 85.328 20.568C85.456 19.9707 85.52 19.16 85.52 18.136V3.736C85.52 2.94666 85.456 2.37067 85.328 2.008C85.2213 1.624 84.9867 1.368 84.624 1.24C84.2827 1.09067 83.7813 1.00533 83.12 0.983999V0.344C83.4613 0.365333 83.888 0.386666 84.4 0.407999C84.912 0.429332 85.4133 0.439999 85.904 0.439999C86.416 0.439999 86.9067 0.429332 87.376 0.407999C87.8453 0.386666 88.272 0.365333 88.656 0.344L101.04 15.608V5.592C101.04 4.41867 100.976 3.52267 100.848 2.904C100.72 2.264 100.432 1.80533 99.984 1.528C99.5573 1.25067 98.8747 1.06933 97.936 0.983999V0.344C98.3413 0.365333 98.8747 0.386666 99.536 0.407999C100.197 0.429332 100.816 0.439999 101.392 0.439999C101.904 0.439999 102.405 0.429332 102.896 0.407999C103.408 0.386666 103.835 0.365333 104.176 0.344Z" fill="white"/>
</g>
<defs>
<clipPath id="clip0_1_71">
<rect width="114" height="37" fill="white" transform="translate(0 -6)"/>
</clipPath>
</defs>
</svg>
